<svg width="225" height="52" viewBox="0 0 170 27" fill="none" xmlns="http://www.w3.org/2000/svg">
<path d="M3.003 19.433C4.873 21.303 6.743 22.238 8.613 22.238C9.581 22.238 10.351 22.018 10.923 21.578C11.517 21.116 11.814 20.533 11.814 19.829C11.814 19.103 11.462 18.498 10.758 18.014C10.054 17.508 9.196 17.068 8.184 16.694C7.194 16.32 6.204 15.902 5.214 15.44C4.224 14.956 3.377 14.274 2.673 13.394C1.969 12.514 1.617 11.447 1.617 10.193C1.617 8.213 2.442 6.508 4.092 5.078C5.742 3.626 7.7 2.9 9.966 2.9C11 2.9 12.001 3.01 12.969 3.23C13.937 3.45 14.872 3.769 15.774 4.187L13.53 9.005C12.914 8.521 12.067 8.081 10.989 7.685C9.933 7.267 8.998 7.058 8.184 7.058C7.392 7.058 6.743 7.256 6.237 7.652C5.753 8.026 5.511 8.532 5.511 9.17C5.511 9.808 5.863 10.38 6.567 10.886C7.271 11.37 8.118 11.799 9.108 12.173C10.12 12.547 11.121 12.965 12.111 13.427C13.123 13.867 13.981 14.527 14.685 15.407C15.389 16.287 15.741 17.354 15.741 18.608C15.741 20.676 14.916 22.491 13.266 24.053C11.616 25.593 9.691 26.363 7.491 26.363C5.841 26.363 4.378 25.967 3.102 25.175C1.98 24.493 1.188 23.888 0.726 23.36L0.429 22.997L3.003 19.433ZM24.1867 13.295C23.2187 13.295 22.4707 13.647 21.9427 14.351C21.4147 15.033 21.1507 16.089 21.1507 17.519C21.1507 18.949 21.4147 20.104 21.9427 20.984C22.4927 21.842 23.2847 22.271 24.3187 22.271C24.8467 22.271 25.3637 22.106 25.8697 21.776C26.3757 21.446 26.7607 21.116 27.0247 20.786L27.3877 20.258L29.0377 21.974C28.9717 22.084 28.8837 22.238 28.7737 22.436C28.6857 22.634 28.4437 22.986 28.0477 23.492C27.6737 23.998 27.2667 24.449 26.8267 24.845C26.4087 25.219 25.8587 25.571 25.1767 25.901C24.4947 26.209 23.7797 26.363 23.0317 26.363C21.3817 26.363 20.0397 25.692 19.0057 24.35C17.9717 23.008 17.4547 21.259 17.4547 19.103C17.4547 16.419 18.2357 14.065 19.7977 12.041C21.3597 10.017 23.1857 9.005 25.2757 9.005C25.9137 9.005 26.5517 9.104 27.1897 9.302C27.8277 9.478 28.4767 9.764 29.1367 10.16L26.8267 14.219C26.0347 13.603 25.1547 13.295 24.1867 13.295ZM40.8439 17.651C40.8439 16.133 40.7119 15.121 40.4479 14.615C40.1839 14.109 39.5679 13.856 38.5999 13.856C37.6319 13.856 36.5319 14.241 35.2999 15.011V17.42L35.6629 25.175L31.2079 26L31.6039 17.981L31.2079 1.283L35.7289 0.457998L35.2999 9.005V12.866C35.6299 12.426 36.0039 11.997 36.4219 11.579C36.8399 11.161 37.4889 10.688 38.3689 10.16C39.2489 9.632 40.1839 9.368 41.1739 9.368C42.1859 9.368 43.0329 9.764 43.7149 10.556C44.3969 11.326 44.7379 12.382 44.7379 13.724L44.5399 17.42L44.9029 25.34L40.4479 26.165L40.8439 17.651ZM47.5558 19.103C47.5558 16.287 48.3148 13.9 49.8328 11.942C51.3508 9.984 53.1218 9.005 55.1458 9.005C57.1918 9.005 58.7758 9.665 59.8978 10.985C61.0418 12.305 61.6138 14.054 61.6138 16.232C61.6138 19.136 60.8768 21.556 59.4028 23.492C57.9508 25.406 56.1138 26.363 53.8918 26.363C52.0658 26.363 50.5478 25.681 49.3378 24.317C48.1498 22.931 47.5558 21.193 47.5558 19.103ZM57.9178 17.948C57.9178 14.758 56.8288 13.163 54.6508 13.163C52.3848 13.163 51.2518 14.659 51.2518 17.651C51.2518 19.213 51.5708 20.434 52.2088 21.314C52.8468 22.194 53.6828 22.634 54.7168 22.634C55.7728 22.634 56.5648 22.238 57.0928 21.446C57.6428 20.632 57.9178 19.466 57.9178 17.948ZM63.4758 19.103C63.4758 16.287 64.2348 13.9 65.7528 11.942C67.2708 9.984 69.0418 9.005 71.0658 9.005C73.1118 9.005 74.6958 9.665 75.8178 10.985C76.9618 12.305 77.5338 14.054 77.5338 16.232C77.5338 19.136 76.7968 21.556 75.3228 23.492C73.8708 25.406 72.0338 26.363 69.8118 26.363C67.9858 26.363 66.4678 25.681 65.2578 24.317C64.0698 22.931 63.4758 21.193 63.4758 19.103ZM73.8378 17.948C73.8378 14.758 72.7488 13.163 70.5708 13.163C68.3048 13.163 67.1718 14.659 67.1718 17.651C67.1718 19.213 67.4908 20.434 68.1288 21.314C68.7668 22.194 69.6028 22.634 70.6368 22.634C71.6928 22.634 72.4848 22.238 73.0128 21.446C73.5628 20.632 73.8378 19.466 73.8378 17.948ZM84.9067 0.457998L84.4777 17.42L84.8407 25.175L80.3857 26L80.7817 17.981L80.3857 1.283L84.9067 0.457998ZM112.007 3.164L111.578 17.42L111.941 25.274L108.047 26.099L98.2132 10.193V17.42L98.6752 26H94.5502L94.9462 17.981L94.5502 3.329L98.5102 3.131L108.311 19.268L107.981 3.659L112.007 3.164ZM115.586 19.103C115.586 16.287 116.345 13.9 117.863 11.942C119.381 9.984 121.152 9.005 123.176 9.005C125.222 9.005 126.806 9.665 127.928 10.985C129.072 12.305 129.644 14.054 129.644 16.232C129.644 19.136 128.907 21.556 127.433 23.492C125.981 25.406 124.144 26.363 121.922 26.363C120.096 26.363 118.578 25.681 117.368 24.317C116.18 22.931 115.586 21.193 115.586 19.103ZM125.948 17.948C125.948 14.758 124.859 13.163 122.681 13.163C120.415 13.163 119.282 14.659 119.282 17.651C119.282 19.213 119.601 20.434 120.239 21.314C120.877 22.194 121.713 22.634 122.747 22.634C123.803 22.634 124.595 22.238 125.123 21.446C125.673 20.632 125.948 19.466 125.948 17.948ZM133.783 10.028V6.431L138.238 5.573L137.809 10.028H141.802L141.439 12.734H137.677L137.512 19.631C137.512 20.665 137.611 21.358 137.809 21.71C138.007 22.04 138.37 22.205 138.898 22.205C139.426 22.205 140.13 22.084 141.01 21.842L141.208 24.185C139.756 25.395 138.48 26 137.38 26C136.28 26 135.378 25.604 134.674 24.812C133.97 23.998 133.618 22.942 133.618 21.644L133.816 17.948L133.783 12.734H131.506L131.869 10.028H133.783ZM150.167 22.634C150.805 22.634 151.476 22.469 152.18 22.139C152.884 21.809 153.434 21.479 153.83 21.149L154.424 20.654L155.942 22.502C155.722 22.876 155.381 23.305 154.919 23.789C154.457 24.273 153.984 24.691 153.5 25.043C153.038 25.373 152.411 25.681 151.619 25.967C150.849 26.231 150.046 26.363 149.21 26.363C147.428 26.363 145.976 25.692 144.854 24.35C143.732 22.986 143.171 21.237 143.171 19.103C143.171 16.419 143.952 14.065 145.514 12.041C147.076 10.017 148.902 9.005 150.992 9.005C152.598 9.005 153.841 9.456 154.721 10.358C155.623 11.26 156.074 12.525 156.074 14.153C156.074 15.121 155.909 16.221 155.579 17.453L154.919 18.146L146.668 18.905C147.043 21.391 148.209 22.634 150.167 22.634ZM150.167 12.404C149.199 12.404 148.385 12.8 147.725 13.592C147.065 14.362 146.68 15.352 146.57 16.562L152.18 15.869C152.246 15.363 152.279 14.945 152.279 14.615C152.279 13.141 151.575 12.404 150.167 12.404ZM163.937 22.931C165.081 22.931 165.653 22.425 165.653 21.413C165.653 21.061 165.4 20.731 164.894 20.423C164.41 20.115 163.805 19.807 163.079 19.499C162.375 19.191 161.66 18.85 160.934 18.476C160.23 18.08 159.625 17.541 159.119 16.859C158.635 16.177 158.393 15.396 158.393 14.516C158.393 13.042 159.042 11.755 160.34 10.655C161.638 9.555 163.134 9.005 164.828 9.005C165.62 9.005 166.39 9.104 167.138 9.302C167.908 9.478 168.645 9.764 169.349 10.16L167.138 14.186C166.984 14.054 166.786 13.889 166.544 13.691C166.302 13.493 165.84 13.24 165.158 12.932C164.498 12.602 163.904 12.437 163.376 12.437C162.87 12.437 162.474 12.558 162.188 12.8C161.924 13.02 161.792 13.339 161.792 13.757C161.792 14.153 162.166 14.56 162.914 14.978C163.684 15.374 164.52 15.748 165.422 16.1C166.324 16.43 167.149 16.991 167.897 17.783C168.667 18.553 169.052 19.477 169.052 20.555C169.052 22.095 168.414 23.448 167.138 24.614C165.884 25.78 164.432 26.363 162.782 26.363C161.726 26.363 160.736 26.132 159.812 25.67C158.91 25.208 158.261 24.746 157.865 24.284L157.271 23.591L159.878 20.555C160.01 20.731 160.197 20.951 160.439 21.215C160.681 21.479 161.154 21.831 161.858 22.271C162.584 22.711 163.277 22.931 163.937 22.931Z" fill="white"/>
</svg>
